/* XPM */
static char *result[] = {
/* columns rows colors chars-per-pixel */
"32 32 8 1 ",
"  c black",
". c #1A2B0B",
"X c #314E16",
"o c #4B692F",
"O c #AD5213",
"+ c #DF7126",
"@ c #FBF236",
"# c #99E550",
/* pixels */
"################################",
"################################",
"################################",
"################################",
"################################",
"#########################@######",
"########################@#@#####",
"#########################@######",
"################################",
"################################",
"################################",
"################################",
"#############@############@#####",
"############@#@  ########@#@####",
"#############@# o  #######@#####",
"#############   o o ############",
"############ o oooo ############",
"############ XooooX ############",
"############# X..X #############",
"############        ############",
"########### OOOOOOOO ###########",
"########## OO+++OO+++ ##########",
"######### ++++++++++++ #########",
"######### ++++++++++++ #########",
"######## ++++++++++++++ ########",
"#####    +++  ++  +++++   ######",
"#### +++ ++++++++++++O +++ #####",
"#### +++ +++++++++++++ +++ #####",
"###@ ++O   OO++++OO+++ O++ #####",
"##@#@   ### ++++++++  #   ######",
"###@######## OOOOOO ############",
"#############      #############"
};
