/* XPM */
static char *_0071da59c8c4130b8e4f9716b0719e6[] = {
/* columns rows colors chars-per-pixel */
"32 32 156 2 ",
"   c black",
".  c #020304",
"X  c #030405",
"o  c gray2",
"O  c #090001",
"+  c #0D0001",
"@  c #01070A",
"#  c #050608",
"$  c #07080B",
"%  c #01090D",
"&  c #07090C",
"*  c #090909",
"=  c #080A0E",
"-  c #0C0C0C",
";  c #130001",
":  c #1D0001",
">  c #140A0E",
",  c #180A0B",
"<  c #1E0E0F",
"1  c #010C11",
"2  c #020E14",
"3  c #0B0D12",
"4  c #0C0E14",
"5  c #0D1015",
"6  c #03151F",
"7  c #0F1219",
"8  c #111111",
"9  c #111214",
"0  c #161616",
"q  c #141519",
"w  c #12151D",
"e  c #181818",
"r  c #1D1D1D",
"t  c #260002",
"y  c #310002",
"u  c #340002",
"i  c #390002",
"p  c #3F0003",
"a  c #37090B",
"s  c #30121B",
"d  c #031620",
"f  c #071923",
"g  c #131720",
"h  c #141821",
"j  c #161B25",
"k  c #171C27",
"l  c #181E29",
"z  c #2C1621",
"x  c #2A1A26",
"c  c #391824",
"v  c #1F2124",
"b  c #1B212E",
"n  c #1C222E",
"m  c #042231",
"M  c #052536",
"N  c #1E2432",
"B  c #1F2634",
"V  c #202020",
"C  c #26272A",
"Z  c #23262D",
"A  c #3C252E",
"S  c #202735",
"D  c #2C2533",
"F  c #212837",
"G  c #2B2B36",
"H  c #292D37",
"J  c #232A39",
"K  c #242B3A",
"L  c #252C3A",
"P  c #2C303A",
"I  c #420004",
"U  c #460104",
"Y  c #500104",
"T  c #5E0006",
"R  c #5A0208",
"E  c #5F0308",
"W  c #640006",
"Q  c #790106",
"!  c #7F0107",
"~  c #75050A",
"^  c #512715",
"/  c #421F2C",
"(  c #631E2E",
")  c #452122",
"_  c #5E2830",
"`  c #4E492C",
"'  c #062D41",
"]  c #073953",
"[  c #2F3644",
"{  c #223945",
"}  c #323846",
"|  c #343A48",
" . c #363C49",
".. c #393F4D",
"X. c #463E4A",
"o. c #08405D",
"O. c #3B424F",
"+. c #0F4561",
"@. c #174B67",
"#. c #22546E",
"$. c #800105",
"%. c #870107",
"&. c #890107",
"*. c #8F0107",
"=. c #810308",
"-. c #88040A",
";. c #86090E",
":. c #930107",
">. c #940107",
",. c #990107",
"<. c #9C0107",
"1. c #90141A",
"2. c #A60107",
"3. c #AB0102",
"4. c #A90107",
"5. c #AF0107",
"6. c #AF0208",
"7. c #B00309",
"8. c #B0050B",
"9. c #B0060C",
"0. c #B60F0B",
"q. c #BE170E",
"w. c #B20B11",
"e. c #B30E14",
"r. c #B31016",
"t. c #B41117",
"y. c #B6171D",
"u. c #B7191F",
"i. c #A11D23",
"p. c #B71A20",
"a. c #B81D23",
"s. c #B81F25",
"d. c #962127",
"f. c #8D3E2A",
"g. c #B92127",
"h. c #D93D19",
"j. c #9B7C01",
"k. c #A16806",
"l. c #E7561C",
"z. c #DF7C03",
"x. c #DE5820",
"c. c #F15F23",
"v. c #F2733F",
"b. c #843C40",
"n. c #DC5C44",
"m. c #F89A10",
"M. c #FAA90C",
"N. c #FBB308",
"B. c #FDC204",
"V. c #FECB01",
"C. c #FCC122",
"Z. c #F79B58",
"A. c #F8B498",
"S. c #FFF1BC",
"D. c #FCD9CB",
"F. c white",
/* pixels */
"o.o.o.o.o.o.o.o.o.o.o.o.o.o.o.o.o.o.o.o.o.o.o.o.o.o.o.o.o.o.o.o.",
"o.o.o.o.o.o.o.o.o.o.o.o.o.o.o.o.o.o.o.o.o.o.o.o.o.o.o.o.o.o.o.o.",
"o.o.o.o.o.o.o.o.o.o.o.o.j.o.o.o.o.o.o.  o.o.o.o.o.o.o.o.o.o.o.o.",
"o.o.o.o.o.o.o.o.o.o.o.o.c.o.o.o.o.o.o.c.o.o.' o.o.o.o.o.o.o.o.o.",
"o.o.o.o.o.o.o.o.S.o.o.c.z.o.o.o.o.o.o.5.h.o.o.V.o.o.o.o.o.o.o.o.",
"o.o.o.o.o.o.o.  Z.o.6 5.*.N.o.o.] o.k.T :.o.o.F.1 o.o.o.o.o.o.o.",
"o.o.o.o.o.o.o.F.n.{ w w c w = w w   w F w 7 g A.D.o.o.o.o.o.o.o.",
"o.o.o.o.o.o.f C.s., _ F F F f.n F n N F h F t 5.M.o.o.o.o.o.o.o.",
"o.o.o.o.o.@.v.s.~ K V E 5 o.( 5.5.o.o.F F F F 5.q.c.o.o.o.o.o.o.",
"o.o.o.o.o.#.w.5.P O.} o.5.5.5.5.5.5.5.5.o.  k   <.5.o.o.o.o.o.o.",
"o.o.o.o.o.o.  F F   o.y.5.%.        %.5.5.o.k F F   o.o.o.o.o.o.",
"o.o.x.o.o.F ` X F +.s.a.a       +       5.5.' F b.F b o.o.  o.o.",
"o.o.m.o.o.F F F [ g.e.  r *         Y u : 5.5.F s F j o.o.c.o.o.",
"o.o.B.o.o.F F   =.6.U   o 8 -       p   Q :.5.  7 F F o.] c.o.o.",
"o.o.c.  o.F   F 5.5.  o V 0 o 1.            5.5.F F F o.; c.o.o.",
"o.o.5.5.o.F F F 5.5.  0 - - r e o           5.5.F T b o.2.5.o.o.",
"o.o.W 5.o.F $ F $.%.    0 o     r *         7.  F F F o.2.5.o.o.",
"o.o.F F n F $   $.5.      -.  0 e   -       :.  = F F   N F o.o.",
"o.o.X y F F F c.$.5.        < V - e 0 o 8 - 5.  l.F B F 3 o.o.o.",
"o.o.o.F F F j *.5.5.        o *     * r -   5.o.$.F F F F o.o.o.",
"o.o.o.F F N . O >   >.  !         0 V -   5.u N O   N F N o.o.o.",
"o.o.o.  F F $ V.F   5.%.  %.    o r o o i.s.^ F F F F F @ o.o.o.",
"o.o.o.o.# F F 5.$.5.5.5.%.  %.%.  o   d.p.8.u.  / F b F o.o.o.o.",
"o.o.o.o.# 5.F   F F 3   5.5.%.%.%.%.8.u.  [ H L q F 5.F o.o.o.o.",
"o.o.o.o.o 5.i   F F n n g 5.5.5.5.5.5.9 Z n G ..v 5.0.n o.o.o.o.",
"o.o.o.m w &.W   F   3 y h 5.5.5.5.5.5.  I F A ..= 1.;.F M o.o.o.",
"o.o.l x 5.5.F F F F 3 & F   5.5.5.5.X   & L X.|  .C 6.7.x 2 o.o.",
"o.F 4.5.5.5.5.  F F F   F F 5.5.5.5.F F 4 F F J ) 9.r.s.5.T B o.",
"o.F R 5.5.5.5.5.5.5.    5 F 5.5.5.5.F F 4   5.t.y.e.9.5.5.z B o.",
"o.o.D z T T 5.5.5.5.5.5.5.5.,.5.5.5.5.5.5.5.5.5.5.5.T T z F o.o.",
"o.o.o.      S 3.F F S F z z z T T z z z F F F T F S     % o.o.o.",
"o.o.o.o.o.o.o.o.o.o.o.o.o.o.d d d d o.o.o.o.o.o.o.o.o.o.o.o.o.o."
};
