/* XPM */
static char *result[] = {
/* columns rows colors chars-per-pixel */
"32 32 105 2 ",
"   c #171D1D",
".  c #1B1F1E",
"X  c #1B1E21",
"o  c #1C2324",
"O  c #1E2629",
"+  c #232727",
"@  c #252628",
"#  c #252A2B",
"$  c #282C2B",
"%  c #2D322C",
"&  c #30322F",
"*  c #2D3335",
"=  c #343537",
"-  c #343935",
";  c #34393B",
":  c #3A3F3D",
">  c #3E433F",
",  c #41433E",
"<  c #3C4244",
"1  c #3E4749",
"2  c #3E484A",
"3  c #404445",
"4  c #444A47",
"5  c #414649",
"6  c #434B4C",
"7  c #4A4E4D",
"8  c #485247",
"9  c #48514E",
"0  c #454F51",
"q  c #494E50",
"w  c #475151",
"e  c #4B5354",
"r  c #4C5B56",
"t  c #4E5659",
"y  c #4E5A5A",
"u  c #525654",
"i  c #535A55",
"p  c #585E52",
"a  c #535759",
"s  c #555B5B",
"d  c #5B5E5A",
"f  c #54605C",
"g  c #5D625D",
"h  c #546A5D",
"j  c #5D6E5C",
"k  c #62645E",
"l  c #5E6460",
"z  c #5F6A64",
"x  c #5E6668",
"c  c #636764",
"v  c #656964",
"b  c #6A6A65",
"n  c #646769",
"m  c #646A6B",
"M  c #696E6B",
"N  c #6B746D",
"B  c #72766E",
"V  c #6C7572",
"C  c #6E7A73",
"Z  c #717571",
"A  c #747B74",
"S  c #767D79",
"D  c #7A7E7B",
"F  c #758079",
"G  c #7C827D",
"H  c #768281",
"J  c #7B8481",
"K  c #7F8B84",
"L  c #838A84",
"P  c #848D8A",
"I  c #8C8F8D",
"U  c #86918C",
"Y  c #89938E",
"T  c #869290",
"R  c #8B9591",
"E  c #8D9993",
"W  c #959595",
"Q  c #909B97",
"!  c #90969B",
"~  c #999798",
"^  c #939E99",
"/  c gray62",
"(  c #94A19B",
")  c #99A29D",
"_  c #9AA7A2",
"`  c #9DAAA4",
"'  c #9DADAA",
"]  c #388E3C",
"[  c #388E3C",
"{  c #388E3C",
"}  c #388E3C",
"|  c #388E3C",
" . c #388E3C",
".. c #388E3C",
"X. c #388E3C",
"o. c #388E3C",
"O. c #388E3C",
"+. c #388E3C",
"@. c #388E3C",
"#. c #388E3C",
"$. c #388E3C",
"%. c #388E3C",
"&. c #388E3C",
"*. c #388E3C",
"=. c #388E3C",
/* pixels */
"=.=.=.=.=.=.=.=.=.=.=.=.=.=.=.=.=.=.=.=.=.=.=.=.=.=.=.=.=.=.=.=.",
"=.=.=.=.=.=.=.=.=.=.=.=.=.=.=.=.=.=.=.=.=.=.=.=.=.=.=.=.=.=.=.=.",
"=.=.=.=.=.=.=.=.=.=.=.=.=.=.=.=.=.=.=.=.=.=.=.=.=.=.=.=.=.=.=.=.",
"=.=.=.=.=.=.=.=.=.=.=.=.=.=.=.=.=.=.=.=.=.=.=.=.=.=.=.=.=.=.=.=.",
"=.=.=.=.=.=.=.=.=.=.=.=.=.=.=.=.=.=.=.=.=.=.=.=.=.=.=.=.=.=.=.=.",
"=.=.=.=.=.=.=.=.=.=.=.=.=.=.=.=.=.=.=.=.=.=.=.=.=.=.=.=.=.=.=.=.",
"=.=.=.=.=.=.=.=.*.@.K P U U i R ) N Y =.=.=.=.=.=.=.=.=.=.=.=.=.",
"=.=.=.=.=.=. .^ P R J L _ U Y Y r _ [ _ =.=.=.=.=.=.=.=.=.=.=.=.",
"=.=.=.=.=.< e e U [ g Y Y Y R E i ) ^ ( ( %.=.=.=.=.=.=.=.=.=.=.",
"=.=.=.=.=.0 6 e 4 N N , s p d k % 4 E ( ^ } =.=.=.=.=.=.=.=.=.=.",
"=.=.=.=.=.6 Z P B L Y f D U P C E h j g V p Z =.=.=.=.=.=.=.=.=.",
"=.=.=.=.< ; e S F S D e G J R Y ^ E R S G U ( ( *.=.=.=.=.=.=.=.",
"=.=.=.=.e ; e 1 S K , e 7 Y L ^ K Q R Y Y U E | ( X.=.=.=.=.=.=.",
"=.=.=.=.e * 0 0 u Y # 6 7 e C I U E E R A R P A d R =.=.=.=.=.=.",
"=.=.=.$.0 X q y e c O w 6 u < s ( E Q E G P g C Y ( [ ` =.=.=.=.",
"=.=.*.6 e w ; 0 e p < 6 0 < q q v ) E ` G 8 G Y F E Y ( _ =.=.=.",
"=.&.o.q y 2 < 6 x u # 0 t o 0 6 a ! | > H Y ( ( ' V 4 N D D =.=.",
"*.#.{ < e 2 O 2 q & 0 5 w * q s e a r : m M m c m i P B L L =.=.",
"=.#.{ = # r 2 0 6 + 6 1 6 1 e t a t C 0 x 3 d n V t Z D A P =.=.",
"=.=.+./ I 2 < w 5 # ; 6 < < q e s M x s - i e 7 5 e Z L D J =.=.",
"=.=.#.| W W 4 1 6 @ 5 q 6 4 0 e s s g 4 ^ E J M T $ e N S l &.=.",
"=.=.=.@.] W W 1 5 X 6 1 5 0 6 q q x i 7 b b v Z S H o k z d =.=.",
"=.=.=.=.=.@...~ W   1 < # 6 9 e a a 7 3 c v n M M D ! : ..=.=.=.",
"=.=.=.=.=.=.=.=.&.+.o.# ; 4 9 e s 7 = < J d c d v d O.=.=.=.=.=.",
"=.=.=.=.=.=.=.=.=.=.=.&.O.u 4 4 7 :   + o . . +.*.=.=.=.=.=.=.=.",
"=.=.=.=.=.=.=.=.=.=.=.=.=.=.=.&.%.&.=.=.=.=.=.=.=.=.=.=.=.=.=.=.",
"=.=.=.=.=.=.=.=.=.=.=.=.=.=.=.=.=.=.=.=.=.=.=.=.=.=.=.=.=.=.=.=.",
"=.=.=.=.=.=.=.=.=.=.=.=.=.=.=.=.=.=.=.=.=.=.=.=.=.=.=.=.=.=.=.=.",
"=.=.=.=.=.=.=.=.=.=.=.=.=.=.=.=.=.=.=.=.=.=.=.=.=.=.=.=.=.=.=.=.",
"=.=.=.=.=.=.=.=.=.=.=.=.=.=.=.=.=.=.=.=.=.=.=.=.=.=.=.=.=.=.=.=.",
"=.=.=.=.=.=.=.=.=.=.=.=.=.=.=.=.=.=.=.=.=.=.=.=.=.=.=.=.=.=.=.=.",
"=.=.=.=.=.=.=.=.=.=.=.=.=.=.=.=.=.=.=.=.=.=.=.=.=.=.=.=.=.=.=.=."
};
