/* XPM */
static char *_4b3f6552a8c4a20b11928f736308bbaOdMuFpHxVPTVgNcR[] = {
/* columns rows colors chars-per-pixel */
"32 32 18 1 ",
"  c None",
". c black",
"X c #003018",
"o c #004020",
"O c #006030",
"+ c #008040",
"@ c #00A050",
"# c #00C060",
"$ c #204000",
"% c #306000",
"& c #408000",
"* c #600000",
"= c #60C000",
"- c #800000",
"; c #A00000",
": c gray69",
"> c #DFEC13",
", c white",
/* pixels */
"          .       .             ",
"         .,.     .:.            ",
"        .o,.     .:...          ",
"       .ooo.    .....,.  ..     ",
"      .o;o-O.   .@@...,. .:.    ",
"     .o;o-*o.  .@+O@O.,,..:.    ",
"    .O;-o-**o..O+OOOOOo,,.:.    ",
"   .O;--o-**oo.+O+$$ooOo@@..    ",
"   .o;-o--***oOOO%%..o+o>@##.   ",
"  .O;--o-***O@@OO$$.*.+Oo>O@#.. ",
"  .o;--o-**.@O+O%%%o..OOO.+O@##.",
" .o;;--o-..O++OO$$%OO+..@O.,O+#.",
" .o;-..o.+@OOOXO&&=+OO. .@@O.@. ",
" .o;. ...OOO..XO$%%+ooO. ... .  ",
" .o.   .@O+..XOO&===O.oO.       ",
" .o.  .+++O..XOo%%%&oo.oO..     ",
"  .  .,O+OO..oOOo&&==o.XoOO...  ",
"    .,.@O,. .XOoo$%%&O..OXo::.  ",
"     .,O.,..XooOo&&&=Oo.,oo..   ",
"     .,. ..XoOooo$%%&Ooo.:.:.   ",
"..    . ..XoOooOo&&&&ooOo...    ",
".o......XXoOOOOoo$%%%oOOOo.     ",
".XooooooX.O+OOoOo%%&%ooooOo.    ",
" .XoooXX.++O+OOo$$$%XoooooX.    ",
"  .XXXXX.O++OoO.$%%...XooXX.    ",
"   ..XXX.OOOOo..$$...XXXooo.    ",
"  .......O+OOO:.......XoooOo..  ",
"  ......OOO+Oo.........XoOoOo:. ",
"   ....O++OOo.....   ..XoOOo..  ",
"    ..+O+OOOO..       .O:.oO:.  ",
"     .,.,O.:O.         .. ....  ",
"     .........                  "
};
