/* XPM */
static char *result[] = {
/* columns rows colors chars-per-pixel */
"32 32 12 1 ",
"  c #100000",
". c gray19",
"X c gray25",
"o c #606060",
"O c #E00000",
"+ c #388E3C",
"@ c #A4C263",
"# c #808080",
"$ c #A0A0A0",
"% c #E8EEAA",
"& c #C0C0C0",
"* c white",
/* pixels */
"++++++++++++o+++++++++++++++++++",
"+++++++++++%oo++++++++++++++++++",
"+o++++++++%ooX++++++++++++++++++",
"+Xo@++++++%oX+++++++++++++++++++",
"++Xo@+++++oXX+++++++++++++++++++",
"+++Xo###oooX++++++++++++++++++++",
"+++o#$###ooo++++++++++++++++++++",
"+++oo###ooooo+++++++++++++++++++",
"+++oOoooOOooo+++++++++++++++++++",
"+++ooo#oooooXo++++++++++++++++++",
"+++oo##ooooooooo++++++++++++++++",
"++++o$##oooooooooo++++++++++++++",
"++++o##oo*oXoooooooo++++++++++++",
"++++X* oOOoXooooooooo+++++++++++",
"+++++  oOoXXoooooooooo++++++++++",
"+++++XooooXooo#oooooooo+++++++++",
"++++++OOXXoooo#ooooooooo++%+%+++",
"++++++OOooooo##oXoooooooo++%++++",
"++++++OO#oooX#ooXooooooooo++++++",
"++++++O+#oXX##ooXXXoXXoooo++++++",
"++%++%++#oXX#ooXXXXXX##oooo+++++",
"+++%+%++#o+X#ooXXXXo##ooooo+++++",
"+++%++++ooo+oooXXXo##oooooo+++++",
"+++%++++ooo+oooXXXo#ooooooo+++++",
"++++++++ooo+ooo+XXo#ooooooo++##+",
"+++++++ooo%++oo+XXXooooooo++#ooo",
"+++++++ooo...oo.XXXXX#ooooo#oo.o",
"+++++.#oo&..ooooXX..o#oo..ooo...",
"++++.oooo..#ooo&.oo##ooo......+.",
"++++.&.&..&&o&.*.&o&oo&......+++",
"++++.*.*..*..*...*.*..*....+++++",
"+++++....................+++++++"
};
