/* XPM */
static char *d68efa32f3fd49b0fab76c9ef30c2b00U7Ca31zdj9i6jQlB[] = {
/* columns rows colors chars-per-pixel */
"32 32 187 2 ",
"   c #350B0B",
".  c #271111",
"X  c #351010",
"o  c #3D1419",
"O  c #270707",
"+  c #4A201F",
"@  c #551E29",
"#  c #472525",
"$  c #4C2025",
"%  c #4B2926",
"&  c #562A2F",
"*  c #5D2D2D",
"=  c #532E30",
"-  c #5C3433",
";  c #5D3E3A",
":  c #663237",
">  c #663539",
",  c #6F3D3E",
"<  c #653D3B",
"1  c #5D473F",
"2  c #68403E",
"3  c #743D41",
"4  c #564442",
"5  c #664846",
"6  c #604C49",
"7  c #674646",
"8  c #734949",
"9  c #774D50",
"0  c #695552",
"q  c #665756",
"w  c #735352",
"e  c #7D5551",
"r  c #7C5B5B",
"t  c #6C615E",
"y  c #77615F",
"u  c #7C6564",
"i  c #7F6A67",
"p  c #776463",
"a  c #805B59",
"s  c #885E5E",
"d  c #836160",
"f  c #8A6561",
"g  c #83686B",
"h  c #906966",
"j  c #87716F",
"k  c #96736F",
"l  c #9D736E",
"z  c #8A7473",
"x  c #8B7876",
"c  c #8E7D7B",
"v  c #937673",
"b  c #997372",
"n  c #947876",
"m  c #9C7975",
"M  c #917C78",
"N  c #9C7D7B",
"B  c #A37472",
"V  c #A37C77",
"C  c #A47A78",
"Z  c #AB7D7A",
"A  c #B17E7D",
"S  c #96837C",
"D  c #9D817D",
"F  c #A2827D",
"G  c #AD827D",
"H  c #B1847D",
"J  c #9E8582",
"K  c #9C8A86",
"L  c #A48582",
"P  c #AC8682",
"I  c #A38A84",
"U  c #AA8A85",
"Y  c #A58E8A",
"T  c #AB8E8B",
"R  c #B18583",
"E  c #B48B86",
"W  c #B38D89",
"Q  c #BF8F8B",
"!  c #BD8B85",
"~  c #AB918D",
"^  c #B4928C",
"/  c #B9928E",
"(  c #A59593",
")  c #AD9693",
"_  c #A49895",
"`  c #AD9994",
"'  c #AC9B9A",
"]  c #A69B99",
"[  c #B39592",
"{  c #BB9793",
"}  c #B49A95",
"|  c #BA9B95",
" . c #B59E9B",
".. c #BC9E9A",
"X. c #BBA095",
"o. c #B4A19D",
"O. c #BCA29C",
"+. c #B6A5A2",
"@. c #BBA5A2",
"#. c #BCA9A5",
"$. c #B7A9A8",
"%. c #BDADAB",
"&. c #BCB1AE",
"*. c #BDB2B1",
"=. c #C2938E",
"-. c #C29D97",
";. c #C39E9A",
":. c #CC9D9C",
">. c #C49493",
",. c #D69D9C",
"<. c #C4A29D",
"1. c #C9A29D",
"2. c #C4A89F",
"3. c #C8AA9F",
"4. c #C4A5A1",
"5. c #CAA6A2",
"6. c #C3AAA4",
"7. c #CBABA5",
"8. c #C3ADAA",
"9. c #CCADAA",
"0. c #D2ADA7",
"q. c #DAAFA5",
"w. c #D2ADAA",
"e. c #C4B1AD",
"r. c #CCB2AD",
"t. c #D4B4AE",
"y. c #D5B9AF",
"u. c #D9B2AC",
"i. c #C5B3B1",
"p. c #CCB6B2",
"a. c #C6B8B6",
"s. c #CCB9B5",
"d. c #CDBDBA",
"f. c #C3BAB9",
"g. c #D4B6B1",
"h. c #DAB6B2",
"j. c #D4BAB5",
"k. c #DBBBB5",
"l. c #D3BCB9",
"z. c #DCBEBA",
"x. c #E1BEB2",
"c. c #E1BEBA",
"v. c #D4C0B6",
"b. c #D5C1BC",
"n. c #DBC2BC",
"m. c #E4C3BC",
"M. c #EAC3BB",
"N. c #F0C3BA",
"B. c #CFC2C0",
"V. c #D4C5C3",
"C. c #DBC5C2",
"Z. c #DCC9C5",
"A. c #DACDCB",
"S. c #DDD1CC",
"D. c #E4C5C2",
"F. c #EBC6C3",
"G. c #E4CAC4",
"H. c #ECCCC4",
"J. c #E4CDCB",
"K. c #EECEC8",
"L. c #E2D3CF",
"P. c #ECD1CB",
"I. c #F4D0C5",
"U. c #F4D4CC",
"Y. c #FAD6CD",
"T. c #EBD5D2",
"R. c #E6DAD7",
"E. c #EAD9D7",
"W. c #E5DEDA",
"Q. c #EADDD9",
"!. c #E3D6D5",
"~. c #F2DAD4",
"^. c #FADDD6",
"/. c #FADFDC",
"(. c #F1DADA",
"). c #ECE1DD",
"_. c #F1E2DD",
"`. c #FEE5DE",
"'. c #F4E5E1",
"]. c #FEEBE6",
"[. c #FDEEE9",
"{. c #F8E5E3",
"}. c #FEF1EF",
"|. c #FFF2ED",
" X c #FFEEF2",
".X c #FFF3F2",
"XX c #FFF8F5",
/* pixels */
"$ O + > , 3 : < % % % - % # ; = - e f 2 * 9 g u p i t q 4 7 s r ",
"& N.I.P./.[.^.m.y.~.p.~.^.D.t.m.r.{.].`.U.J.}.}.}._._.Q.[.H.U.^.",
"X q.U ` %.] ` D } T ~ ) 4.U V W Y ` 9.^ [ L  .8.a.8.} e.8.[ ^ -.",
"  M...6.+.&.( [ E V [ | } 5.=.7. .( C.| } | 0.Y o.6.4.O.} I U / ",
"@ N./ | e.V.d.N b Z b U } | l J  .' J...) 4.Q I 4.C.G.r.6.~ o.~ ",
"o H.W / g.l.~ n 6.Y { L D L l v @.' p.} ~ r.-.<.t.e.j.t.t.o.i.#.",
". `.6.<.p.p.} } 8.c  .[ [ N G >.C W P L [ 7.4.7.3.j.C.z.4. .d.] ",
"; ~.4.6.s.p.@.6.8. .) T Y D C A R B ,.H G 1.^ m.r.j.h.t...X.p.%.",
"e U.6.8.e.p.%.%.i.@.6.@.L m L P C h l Z ! 1.W H.v.g.k.v.r.X.r.#.",
"f ^.9.b.l.p.&.d.i.9.} g...~ N W P | v L 5.-.t.U.P.e.n.G.g.@.9.O.",
"r ].7.X.v.b.d.V.d.4.6.r.g.@.~ T  .e.' x I U | D.P.6.m.k.r.%.$.J ",
"u ].O.X.y.l.a.a.d.C.@.8.l.` +.@. .~ 6.@.D <.t.H.H.k.j.G.C.*.]  .",
"u _...y.X.6.#.+.' 8.o.p.+.+.+.r.;.k T O.^ W k.m.y.9.7.l.d.f._ G.",
"5 ].[ ` r.2.O.+.+.l.S ' d.b.p.' ` L [ [ T F U x.M.M.k.j.s.8.I { ",
"w [.O.S ~ ~ o.d.l.8.} K 8.j.J.A.R.b.l.z.j.j.F | Y.H.k.1.^ Z Z 1.",
"a |.n.7.T [ @.@.p.@.9.8.p.G.n.T.E.V.a.s.6.} ^ U [ Y ..;.{ Z B u.",
"d ].n.k.9...j.@. .b.p.'  .t.0.z.E.A.V.C.g.<.^ [ } } r.9.<.{ B { ",
"z |.8.n.D.7.t.6.8.8.s.i.8.5.[ T [  .s.e.@.X.6.<.[ <.t.<.j.F v M ",
"z XXp.r.z.t.c.y.5.8.e.l.r.4.7.;.R P 8.l.l.z.n.g.X.<.<.t.7.~ J o.",
"p }.n.z.h.w.k.k.t.t.j.p.r.t.9.9.^ F 9.p.6.j.j.e.l.r.X.} t.U [ r.",
"0 ].j.k.7.| / } 5.7.7.z.z.6.6.k.t.X.r.p.s.A.V.d.Z.#.Y T D / / F ",
"j }.O.O.<.| t.k.K.k.g.j.g.t.4.g.t.6.g.i.Z.d.A.l.@.I } g.L N P / ",
"y }.j.9.} r.5.5.c.w.h.m.c.k.g...7.7.r.b.T.d.s.6.[ L } ..T } D.g.",
"5 [.n.j.r.J.D.v.k.h.w.| 9.6.O.@.e.j.k.v.e.e.i.d.l.[ ~ )  .o.[ C.",
"8 ].9.| } r.r.r.t.H.c.;.U ~ I @.e.C.G.v.e.C.8.e.J.C.r.r.s.i.9.#.",
"8 ].9.7.X.6.| ~ ..w.1.R P <.6.8.i.j.b.#.O.z.p.l.C.V.d.r. .J n ) ",
"w ].p.r.O.X.} ~ O.[ P E G ^ j.T.P.j.v.o.6.5.z.j.V.A.V.p.I D 5.~.",
"6 }.a.] %.r.9.} 6.g.<./ :.^ | P.D.w.0.^ 5.t.j.~.'.).R.e.K ) t.H.",
"0 .X&.$.%.8.4.} ;.<.t.c.0.[ Y m.z.D.-.U 1.t.H.~.'.W.W.L.d.s.g.t.",
"0 [.b.8.] @.i.#.7.W W W P L } j.c.t.^ [ 5.c.D.n.L.'.R.S.Z.Z.G.j.",
"1 '.8.b.( o.i.#.k.<...[ m k | m.F.M... .g.t.9.6.G.(..XQ.Q.d.8.6.",
"w |.6.@.o.a.A.#.o.#.~ 6.0.m T ../ { 8.p.g.:.:.h.m./. X.X!.d.8.O."
};
