/* XPM */
static char *_be2cbaeb07f4b38c21b98cbccc65587GkowKQUrshMOzCWD[] = {
/* columns rows colors chars-per-pixel */
"32 32 3 1 ",
"  c #2C6B2F",
". c #388E3C",
"X c #2C6B2F",
/* pixels */
"................................",
"................................",
"................................",
"............ ............ . ....",
"........... .............. .....",
"........... ....................",
".... ...........................",
"..... ..........................",
"..... .... .....................",
"......... ......................",
"......... ......... . ..........",
".................... ...........",
"................................",
"................................",
"................................",
"................................",
"................................",
"................................",
"................................",
"...........................X.X..",
"............................X...",
".......X........................",
"......X.........................",
"...X..X.........................",
"....X.X.........................",
"....X.....X.....................",
"....X......X........X.X.........",
"...........X.........X..........",
"...........X....................",
"................................",
"................................",
"................................"
};
