/* XPM */
static char *result[] = {
/* columns rows colors chars-per-pixel */
"32 32 9 1 ",
"  c #3A3737",
". c #827C7C",
"X c #388E3C",
"o c #CDAE67",
"O c #A4C263",
"+ c #B7B3B2",
"@ c #D6B39D",
"# c #E8EEAA",
"$ c #EFE9E7",
/* pixels */
"XXXXXXXXXXXXXXXXXXXXXXXXXXXXXXXX",
"XXXXXXXXXXX#XXXXXXXXXXXXXXXXXXXX",
"XXXXXXXXXX#X  XX   XXXXXXXXXXXXX",
"XXXOXXXXXX# $ X .+ XXXXXXXXXXXXX",
"XXXXOXXXXX .$  +$$ XXXXXXXXXXXXX",
"XXXXOXXXXX $$  $$$ XXXXXXXXXXXXX",
"XXXXXXXXX .$$ +$@$ XXXXXXXXXXXXX",
"XXXXXXXXX +$+.$@@$ XXXXXXXXXXXXX",
"XXXXXXXXX +$ +$@@ XXXXXXXXXXXXXX",
"XXXXXXXX   . $@@@ XXXXXXXXXXXXXX",
"XXXXXXX $$++.$@@X XXXXXXXXXXXXXX",
"XXXXXX +$$$$.$@X XXXXXXXXXXXXXXX",
"XXXXX .$$$$$$$@+     XXXXXXXXXXX",
"XXXXX +$$ $+$$$.+$$+.  XXXXXXXXX",
"XXXX +$$+  $$$+.$$$$$$+ XXXXXXXX",
"XXX .$$$$$$$$$$$$$$$$$$+ XXXXXXX",
"XXX +$$$$$$$$+$$$$$$$$$$. #X#XXX",
"XXX oo $$$$$+.$$$$$$$$$$+ X#XXXX",
"XXXX .$$$$+ .$$$$$$$$$$$$. XXXXX",
"XXXXX  .+. +$$$$$$$$$$$$$+ XXXXX",
"XX#XX#X   +$$$$$$$$$$$$$$.$ XXXX",
"XXX#X#XXX +$$$$+$$$$$$$$$+$ XXXX",
"XXX#XXXXX .+$$$++$$$$$$$$++ XXXX",
"XXX#XXXXXX .++++ +$$$$+$$. XXXXX",
"XXXXXXXXXX   .++. .++ +$+. XXXXX",
"XXXXXXXXXX .  +++    .+++ XXXXXX",
"XXXXXXXXX + .$$$+  .$$++. XXXXXX",
"XXXXXXXXX + $$$$ X +$$$  XXXXXXX",
"XXXXXXXXXX      XXX     XXXXXXXX",
"XXXXXXXXXXXXXXXXXXXXXXXXXXXXXXXX",
"XXXXXXXXXXXXXXXXXXXXXXXXXXXXXXXX",
"XXXXXXXXXXXXXXXXXXXXXXXXXXXXXXXX"
};
