/* XPM */
static char *result[] = {
/* columns rows colors chars-per-pixel */
"32 32 10 1 ",
"  c #3A3737",
". c #827C7C",
"X c #388E3C",
"o c #BC8B6D",
"O c #CDAE67",
"+ c #2C6B2F",
"@ c #B7B3B2",
"# c #D6B39D",
"$ c #2C6B2F",
"% c #EFE9E7",
/* pixels */
"XXXXXXXXXXXXXXXXXXXXXXXXXXXXXXXX",
"XXXXXXXXXXX$XXXXXXXXXXXXXXXXXXXX",
"XXXXXXXX  $XX   XXXXXXXXXXXXXXXX",
"XXX+XXX  @ X  .@ XXXXXXXXXXXXXXX",
"XXXX+XX .% X @%% XXXXXXXXXXXXXXX",
"XXXX+XX %%@  %%% XXXXXXXXXXXXXXX",
"XXXXXXX %%@ %@#% XXXXXXXXXXXXXXX",
"XXXXXXX %%@.%##% XXXXXXXXXXXXXXX",
"XXXXXXX @% %@##% XXXXXXXXXXXXXXX",
"XXXXXXX  . %###@ XXXXXXXXXXXXXXX",
"XXXXXXX %%@@.###      XXXXXXXXXX",
"XXXXXX @%%%%.##o %%%@.  XXXXXXXX",
"XXXXX .%%%%%%%#@ %%%%%%@ XXXXXXX",
"XXXXX @%% %@%%%.@%%%%%%%. XXXXXX",
"XXXX @%%@  %%%@.%%%%%%%%%@ XXXXX",
"XXX .%%%%%%%%%%%%%%%%%%%%%. XXXX",
"XXX @%%%%%%%%@%%%%%%%%%%%%@ $XXX",
"XXX OO %%%%%@.%%%%%%%%%%%%.% XXX",
"XXXX .%%%%@ .%%%%%%%%%%%%%@% XXX",
"XXXXX  .@. @%%%%%%%%%%%%%%@@   X",
"XX$XX$X   @%%%%%%%%%%@.%%%.  %@ ",
"XXX$X$X . @%%@ @%%%@.  .%%%@@ @ ",
"XXX$XXX . .@@.      XXX  .%%@@ X",
"XXX$XX @ .@@@ XXXXX$X$XX @%%%  X",
"XXXXX @ .%%%@ XXXXXX$XXXX     XX",
"XXXXX @ @%%% XXXXXXXXXXXXXXXXXXX",
"XXXXXX      XXXXXXXXXXXXXXXXXXXX",
"XXXXXXXXXXXXXXXXXXXXXXXXXXXXXXXX",
"XXXXXXXXXXXXXXXXXXXXXXXXXXXXXXXX",
"XXXXXXXXXXXXXXXXXXXXXXXXXXXXXXXX",
"XXXXXXXXXXXXXXXXXXXXXXXXXXXXXXXX",
"XXXXXXXXXXXXXXXXXXXXXXXXXXXXXXXX"
};
