/* XPM */
static char *_a17d18b96d74844a0060192a3204480rda8nEuMKSQQRbIo[] = {
/* columns rows colors chars-per-pixel */
"32 32 15 1 ",
"  c None",
". c black",
"X c #1E0000",
"o c #2F0000",
"O c #3F0000",
"+ c #202020",
"@ c #4E0000",
"# c #5E0000",
"$ c #7F0000",
"% c #505050",
"& c #606060",
"* c gray44",
"= c #A0A0A0",
"- c #C0C0C0",
"; c gray88",
/* pixels */
"               ....             ",
"              .OOOX.            ",
"             .X=&XO.            ",
"            .X=-;-X.            ",
"            .X+;++oX.           ",
"             .=+;&Xo.           ",
"             .-&--Xo.           ",
"            .XX-=oXXo..         ",
"           .XOoXXXoOXo@.        ",
"          .oX$XoooX#o@oo.       ",
"         .OoXX$o$$#XoOoXX.      ",
"        .o#oX$OoOXXX#ooo@O.     ",
"       .Oo@o.X$o$$$#oXo@Ooo.    ",
"      .O@o@o.#XOoXXX#Xo@o..o.   ",
"      .@@oOo.X#O$$##. .@.@X..   ",
"    ..o@OooX.XoOOoOX. .o.=*X.   ",
"   .==o@OooX.XoO@oOX. .o.%*Xo.  ",
"   .**o@OooX.XOo@o@oX. ..XXXo.  ",
"   .%%o@OooX.X@o#o@OX. .oXXX.   ",
"    ..oOooXX.o#o#oO@X. .ooX.    ",
"     .oOoXX..o@o@Oo#o. .oX..    ",
"     .oooX. .oOoO@o#o.  ..      ",
"      .ooX. .XoOo@o@o.          ",
"      .ooX. .Xo@o@oO@o.         ",
"      .XXX. .Xo@o@Oo@o......    ",
"       ...  .XoOo@Oo@Oo......   ",
"            .oOoX@OoOOo......   ",
"            .oOXXOOXoOX.....    ",
"            .XoX.ooXooX.....    ",
"            .=&X....=......     ",
"           .=&+....+&==...      ",
"           .++...  .+++..       "
};
