/* XPM */
static char *result[] = {
/* columns rows colors chars-per-pixel */
"32 32 10 1 ",
"  c #3A3737",
". c #827C7C",
"X c #388E3C",
"o c #BC8B6D",
"O c #CDAE67",
"+ c #2C6B2F",
"@ c #B7B3B2",
"# c #D6B39D",
"$ c #2C6B2F",
"% c #EFE9E7",
/* pixels */
"XXXXXXXXXXXXXXXXXXXXXXXXXXXXXXXX",
"XXXXXXXXXXX$XXXXXXXXXXXXXXXXXXXX",
"XXXXXXXXXX$XXX        XXXXXXXXXX",
"XXX+XXXXXX$XXX %%@. .. XXXXXXXXX",
"XXXX+XXXXX$XXX @%%%@ %% XXXXXXXX",
"XXXX+XXXXXXXXXX oo%%@ %% XXXXXXX",
"XXXXXXXXXXXXXXX @##%%. %. XXXXXX",
"XXXXXXXXXXXXXXXX ###%@ .   XXXXX",
"XXXXXXXXXXXXXXXXX ##@%.@@%% XXXX",
"XXXXXXXXXXXXXXXXX @o#%.%%%%@ XXX",
"XXXXXXXXXXXXXXXX   @#%%%%%%%. XX",
"XXXXXXXXXXXXXX  %%@.%%%@% %%@ XX",
"XXXXXXXXXXXX  .@%%%.@%%%  @%%@ X",
"XXXXXXXXXXX @%%%%%%%%%%%%%%%%%. ",
"XXXXXXXXXX @%%%%%%%%%@%%%%%%%%@ ",
"XXXXXXXXX .%%%%%%%%%%.@%%%%% OO ",
"XXXXXXXX @%%%%%%%%%%%%. @%%%%. X",
"XXXXXXX .%%%%%%%%%%%%%%@ .@.  XX",
"XXXXXXX @%%%%%%%%%%%%%%%@   XXXX",
"XXXXXX %.%%%%%%%%%@%%%%%%@ XXXXX",
"XX$XX$ %@%%%%%%%@@@@%%%%@. XXXXX",
"XXX$X$ @@%%%%%%@.    @@@@ . XXXX",
"XXX$XXX .@%%%@@@  XX  @@@  . XXX",
"XXX$XXXX @%%@@  XXX$X @%%%. . XX",
"XXXXXXX @@@.  XXXXXX$X %%%% . XX",
"XXXXXX @@%%. XXXXXXXXXX       XX",
"XXXXXX  %%%@ XXXXXXXXXXXXXXXXXXX",
"XXXXXXX     XXXXXXXXXXXXXXXXXXXX",
"XXXXXXXXXXXXXXXXXXXXXXXXXXXXXXXX",
"XXXXXXXXXXXXXXXXXXXXXXXXXXXXXXXX",
"XXXXXXXXXXXXXXXXXXXXXXXXXXXXXXXX",
"XXXXXXXXXXXXXXXXXXXXXXXXXXXXXXXX"
};
