/* XPM */
static char *result[] = {
/* columns rows colors chars-per-pixel */
"32 32 10 1 ",
"  c #3A3737",
". c #827C7C",
"X c #388E3C",
"o c #BC8B6D",
"O c #CDAE67",
"+ c #2C6B2F",
"@ c #B7B3B2",
"# c #D6B39D",
"$ c #2C6B2F",
"% c #EFE9E7",
/* pixels */
"XXXXXXXXXXXXXXXXXXXXXXXXXXXXXXXX",
"XXXXXXXXXXX$XX   XX  XXXXXXXXXXX",
"XXXXXXXXXX$XXX @. X % XXXXXXXXXX",
"XXX+XXXXXX$XXX %%@  %. XXXXXXXXX",
"XXXX+XXXXX$XXX %%%  %% XXXXXXXXX",
"XXXX+XXXXXXXXX %#%@ %%. XXXXXXXX",
"XXXXXXXXXXXXXX %##%.@%@ XXXXXXXX",
"XXXXXXXXXXXXXXX ##%@ %@ XXXXXXXX",
"XXXXXXXXXXXXXXX ###% .   XXXXXXX",
"XXXXXXXXXXXXXXX o##%.@@%% XXXXXX",
"XXXXXXXXXXXXXXXX o#%.%%%%@ XXXXX",
"XXXXXXXXXXXX     @#%%%%%%%. XXXX",
"XXXXXXXXXX  .@%%@.%%%@% %%@ XXXX",
"XXXXXXXXX @%%%%%%.@%%%  @%%@ XXX",
"XXXXXXXX @%%%%%%%%%%%%%%%%%%. XX",
"XXXXXXX .%%%%%%%%%%@%%%%%%%%@ XX",
"XXXXXXX @%%%%%%%%%%.@%%%%% OO XX",
"XXXXXX .%%%%%%%%%%%%. @%%%%. XXX",
"XXXXXX @%%%%%%%%%%%%%@ .@.  XXXX",
"XXXXX %.%%%%%%%%%%%%%%@   XXXXXX",
"XX$XX %@%%%%%%%%%@%%%%@ XXXXXXXX",
"XXX$X @@%%%%%%%%@@%%%@. XXXXXXXX",
"XXX$XX .%%@%%%%@ @@@@. XXXXXXXXX",
"XXX$XX .@%@ @@. .@@.   XXXXXXXXX",
"XXXXXXX @@@.    @@@  . XXXXXXXXX",
"XXXXXXX .@@%%.  @%%%. @ XXXXXXXX",
"XXXXXXXX  %%%@ X %%%% @ XXXXXXXX",
"XXXXXXXXX     XXX      XXXXXXXXX",
"XXXXXXXXXXXXXXXXXXXXXXXXXXXXXXXX",
"XXXXXXXXXXXXXXXXXXXXXXXXXXXXXXXX",
"XXXXXXXXXXXXXXXXXXXXXXXXXXXXXXXX",
"XXXXXXXXXXXXXXXXXXXXXXXXXXXXXXXX"
};
