/* XPM */
static char *result[] = {
/* columns rows colors chars-per-pixel */
"32 32 11 1 ",
"  c #3A3737",
". c #827C7C",
"X c #388E3C",
"o c #BC8B6D",
"O c #C49172",
"+ c #CDAE67",
"@ c #2C6B2F",
"# c #B7B3B2",
"$ c #D6B39D",
"% c #E8EEAA",
"& c #EFE9E7",
/* pixels */
"XXXXXXXXXXXXXXXXXXXXXXXXXXXXXXXX",
"XXXXXXXXXXX%XXXXXXXXXXXXXXXXXXXX",
"XXXXXXXXXX%XXXXXXXXXXXXXXXXXXXXX",
"XXX@XXX   %XXXXXXXXXXXX   XXXXXX",
"XXXX@XX #& XXXXXXXXXXX &# XXXXXX",
"XXXX@XX &&& XXXXXXXXX &&& XXXXXX",
"XXXXXXX &o&# XX   XX #&o& XXXXXX",
"XXXXXXX &$#&.  #&#  .&#$& XXXXXX",
"XXXXXXXX $$$&. ... .&$$$ XXXXXXX",
"XXXXXXXX O$$&#.   .#&$$O XXXXXXX",
"XXXXXXXXX $$#& ### &#$$ XXXXXXXX",
"XXXXXXXX . $#&#&&&#&#$ . XXXXXXX",
"XXXXXXXX ## #&&&&&&&# ## XXXXXXX",
"XXXXXXX .&##.#&&&&&#.##&. XXXXXX",
"XXXXXXX #&##. #&&&# .##&# XXXXXX",
"XXXXXXX &&#.# ##### #.#&& XXXXXX",
"XXXXXXX && #&.#&&&#.&# && %X%XXX",
"XXXXXXX && &&#&&&&&#&& && X%XXXX",
"XXXXXXX #& #&& +++ &&# &# XXXXXX",
"XXXXXXXX && &&&   &&& && XXXXXXX",
"XX%XX%X  .&& .## ##. &&.  XXXXXX",
"XXX%X%X ##.&&   #   &&.## XXXXXX",
"XXX%XXX && #&#&&&&&#&# && XXXXXX",
"XXX%XXXX    &. #&# .&    XXXXXXX",
"XXXXXXXXXX  #&.   .&#  XXXXXXXXX",
"XXXXXXXXXX% #&#. .#&# XXXXXXXXXX",
"XXXXXXXXXX &&&&   &&&& XXXXXXXXX",
"XXXXXXXXXX &&&& X &&&& XXXXXXXXX",
"XXXXXXXXXXX    XXX    XXXXXXXXXX",
"XXXXXXXXXXXXXXXXXXXXXXXXXXXXXXXX",
"XXXXXXXXXXXXXXXXXXXXXXXXXXXXXXXX",
"XXXXXXXXXXXXXXXXXXXXXXXXXXXXXXXX"
};
