/* XPM */
static char *result[] = {
/* columns rows colors chars-per-pixel */
"32 32 10 1 ",
"  c #3A3737",
". c #827C7C",
"X c #388E3C",
"o c #BC8B6D",
"O c #CDAE67",
"+ c #2C6B2F",
"@ c #B7B3B2",
"# c #D6B39D",
"$ c #2C6B2F",
"% c #EFE9E7",
/* pixels */
"XXXXXXXXXXXXXXXXXXXXXXXXXXXXXXXX",
"XXXXXXXXXXX$XXXXXXXXXXXXXXXXXXXX",
"XXXXXXXXXX$XXXXXXXXXXXXXXXXXXXXX",
"XXX+XXXXXX$XXXXXXX   XXX  XXXXXX",
"XXXX+XXXXX$XXXXXX @.  X @  XXXXX",
"XXXX+XXXXXXXXXXXX %%@ X %. XXXXX",
"XXXXXXXXXXXXXXXXX %%%  @%% XXXXX",
"XXXXXXXXXXXXXXXXX %#@% @%% XXXXX",
"XXXXXXXXXXXXXXXXX %##%.@%% XXXXX",
"XXXXXXXXXXXXXXXXX %##@% %@ XXXXX",
"XXXXXXXXXXXXXXXXX @###% .  XXXXX",
"XXXXXXXXXXXX      ###.@@%% XXXXX",
"XXXXXXXXXX  .@%%% o##.%%%%@ XXXX",
"XXXXXXXXX @%%%%%% @#%%%%%%%. XXX",
"XXXXXXXX .%%%%%%%@.%%%@% %%@ XXX",
"XXXXXXX @%%%%%%%%%.@%%%  @%%@ XX",
"XXXXXX .%%%%%%%%%%%%%%%%%%%%%. X",
"XXXXXX @%%%%%%%%%%%%@%%%%%%%%@ X",
"XXXXX %.%%%%%%%%%%%%.@%%%%% OO X",
"XXXXX %@%%%%%%%%%%%%%. @%%%%. XX",
"XX$   @@%%%%%%%%%%%%%%@ .@.  XXX",
"XX @%  .%%%.@%%%%%%%%%%@   XXXXX",
"XX @ @@%%%.  .@%%%@ @%%@ . XXXXX",
"XXX @@%%.  XXX      .@@. . XXXXX",
"XXX  %%%@ $XXXXXXXXX @@@. @ XXXX",
"XXXX     X$XXXXXXXXX @%%%. @ XXX",
"XXXXXXXXXXXXXXXXXXXXX %%%@ @ XXX",
"XXXXXXXXXXXXXXXXXXXXXX      XXXX",
"XXXXXXXXXXXXXXXXXXXXXXXXXXXXXXXX",
"XXXXXXXXXXXXXXXXXXXXXXXXXXXXXXXX",
"XXXXXXXXXXXXXXXXXXXXXXXXXXXXXXXX",
"XXXXXXXXXXXXXXXXXXXXXXXXXXXXXXXX"
};
