/* XPM */
static char *result[] = {
/* columns rows colors chars-per-pixel */
"32 32 9 1 ",
"  c #3A3737",
". c #827C7C",
"X c #388E3C",
"o c #CDAE67",
"O c #A4C263",
"+ c #B7B3B2",
"@ c #D6B39D",
"# c #E8EEAA",
"$ c #EFE9E7",
/* pixels */
"XXXXXXXXXXXXXXXXXXXXXXXXXXXXXXXX",
"XXXXXXXXXXX#XXXXXXXXXXXXXXXXXXXX",
"XXXXXXXXXX#XXXX   XX  XXXXXXXXXX",
"XXXOXXXXXX#XXXX +. X $ XXXXXXXXX",
"XXXXOXXXXX#XXXX $$+  $. XXXXXXXX",
"XXXXOXXXXXXXXXX $$$  $$ XXXXXXXX",
"XXXXXXXXXXXXXXX $@$+ $$. XXXXXXX",
"XXXXXXXXXXXXXXX $@@$.+$+ XXXXXXX",
"XXXXXXXXXXXXXXXX @@$+ $+ XXXXXXX",
"XXXXXXXXXXXXXXXX @@@$ .   XXXXXX",
"XXXXXXXXXXXXXXXX X@@$.++$$ XXXXX",
"XXXXXXXXXXXXXXXXX X@$.$$$$+ XXXX",
"XXXXXXXXXXXXXXXXX +X$$$$$$$. XXX",
"XXXXXXXXXXX      +.$$$+$ $$+ XXX",
"XXXXXXXXX  .+$$$$$.+$$$  +$$+ XX",
"XXXXXXX  +$$$$$$$$$$$$$$$$$$$. X",
"XXXXXX .$$$$$$$$$$$$+$$$$$$$$+ X",
"XXXXX +$$$$$$$$$$$$$.+$$$$$ oo X",
"XXXX .$$$$$$$$$$$$$$$. +$$$$. XX",
"XXX $+$$$$$$$$$$$$$$$$+ .+.  XXX",
"XX# $.$$$$$$$$$$$$$$$$$+   XXXXX",
"XXX ++$$$$$$$$$$$$$$$$$$+  XXXXX",
"XXX# +$$$$$$$$$$$$++$$$+.    XXX",
"XXX#  $$$$$+.       .++++. ..  X",
"XXX ++++$+   XXXXXXX   +++.   . ",
"XX .+++.  #XXXXXXXXXXXX .++$$+ +",
"X .$$$.  XXXXXXXXXXXXXXX .$$+. +",
" +$$$+  XXXXXXXXXXXXXXXXX $$+   ",
" $$$$.  XXXXXXXXXXXXXXXXXX   XXX",
"X      XXXXXXXXXXXXXXXXXXXXXXXXX",
"XXXXXXXXXXXXXXXXXXXXXXXXXXXXXXXX",
"XXXXXXXXXXXXXXXXXXXXXXXXXXXXXXXX"
};
