/* XPM */
static char *result[] = {
/* columns rows colors chars-per-pixel */
"32 32 10 1 ",
"  c #3A3737",
". c #827C7C",
"X c #388E3C",
"o c #BC8B6D",
"O c #CDAE67",
"+ c #2C6B2F",
"@ c #B7B3B2",
"# c #D6B39D",
"$ c #2C6B2F",
"% c #EFE9E7",
/* pixels */
"XXXXXXXXXXXXXXXXXXXXXXXXXXXXXXXX",
"XXXXXXXXXXX$XXXXXXXXXXXXXXXXXXXX",
"XXXXXXXXXX$XXXXXXXXXXXXXXXXXXXXX",
"XXX+XXXXXX$XX        XXXXXXXXXXX",
"XXXX+XXXXX$X .. .@%% XXXXXXXXXXX",
"XXXX+XXXXXX %% @%%%@ XXXXXXXXXXX",
"XXXXXXXXXX %% @%%oo XXXXXXXXXXXX",
"XXXXXXXXX .% .%%##@ XXXXXXXXXXXX",
"XXXXXXXX   . @%### XXXXXXXXXXXXX",
"XXXXXXX %%@@.%@## XXXXXXXXXXXXXX",
"XXXXXX @%%%%.%#o@ XXXXXXXXXXXXXX",
"XXXXX .%%%%%%%#@   XXXXXXXXXXXXX",
"XXXXX @%% %@%%%.@%%  XXXXXXXXXXX",
"XXXX @%%@  %%%@.%%%@.  XXXXXXXXX",
"XXX .%%%%%%%%%%%%%%%%%@ XXXXXXXX",
"XXX @%%%%%%%%@%%%%%%%%%@ XXXXXXX",
"XXX OO %%%%%@.%%%%%%%%%%. $X$XXX",
"XXXX .%%%%@ .%%%%%%%%%%%%@ $XXXX",
"XXXXX  .@. @%%%%%%%%%%%%%%. XXXX",
"XXXXXXX   @%%%%%%%%%%%%%%%@ XXXX",
"XX$XX$XX @%%%%%%@%%%%%%%%%.% XXX",
"XXX$X$XX .@%%%%@@@@%%%%%%%@% XXX",
"XXX$XXX . @@@@    .@%%%%%%@@ XXX",
"XXX$XX .  @@@  XX  @@@%%%@. XXXX",
"XXXXX . .%%%@ XXXXX  @@%%@ XXXXX",
"XXXXX . %%%% XXXXXXXX  .@@@ XXXX",
"XXXXX       XXXXXXXXXX .%%@@ XXX",
"XXXXXXXXXXXXXXXXXXXXXX @%%%  XXX",
"XXXXXXXXXXXXXXXXXXXXXXX     XXXX",
"XXXXXXXXXXXXXXXXXXXXXXXXXXXXXXXX",
"XXXXXXXXXXXXXXXXXXXXXXXXXXXXXXXX",
"XXXXXXXXXXXXXXXXXXXXXXXXXXXXXXXX"
};
