/* XPM */
static char *result[] = {
/* columns rows colors chars-per-pixel */
"32 32 9 1 ",
"  c #3A3737",
". c #827C7C",
"X c #388E3C",
"o c #CDAE67",
"O c #A4C263",
"+ c #B7B3B2",
"@ c #D6B39D",
"# c #E8EEAA",
"$ c #EFE9E7",
/* pixels */
"XXXXXXXXXX  XX   XXXXXXXXXXXXXXX",
"XXXXXXXXX $ X .+ XXXXXXXXXXXXXXX",
"XXXXXXXX .$  +$$ XXXXXXXXXXXXXXX",
"XXXOXXXX $$  $$$ XXXXXXXXXXXXXXX",
"XXXXOXX .$$ +$@$ XXXXXXXXXXXXXXX",
"XXXXOXX +$+.$@@$ XXXXXXXXXXXXXXX",
"XXXXXXX +$ +$@@ XXXXXXXXXXXXXXXX",
"XXXXXX   . $@@@ XXXXXXXXXXXXXXXX",
"XXXXX $$++.$@@X XXXXXXXXXXXXXXXX",
"XXXX +$$$$.$@X XXXXXXXXXXXXXXXXX",
"XXX .$$$$$$$X+ XXXXXXXXXXXXXXXXX",
"XXX +$$ $+$$$.+      XXXXXXXXXXX",
"XX +$$+  $$$+.$$$$$+.  XXXXXXXXX",
"X .$$$$$$$$$$$$$$$$$$$+  XXXXXXX",
"X +$$$$$$$$+$$$$$$$$$$$$. XXXXXX",
"X oo $$$$$+.$$$$$$$$$$$$$+ XXXXX",
"XX .$$$$+ .$$$$$$$$$$$$$$$. #XXX",
"XXX  .+. +$$$$$$$$$$$$$$$$+$ XXX",
"XXXXX   +$$$$$$$$$$$$$$$$$.$ XXX",
"XXXXX  +$$$$$$$$$$$$$$$$$$++ XXX",
"XX#    .+$$$++$$$$$$$$$$$$+ XXXX",
"X  .. .++++.       .+$$$$$  XXXX",
" .   .+++   XXXXXXX   +$++++ XXX",
"+ +$$++. X#XXXXXXXX#X#  .+++. XX",
"+ .+$$. XX#XXXXXXXXX#XX  .$$$. X",
"   +$$ XXX#XXXXXXXXXXXXX  +$$$+ ",
"XXX   XXXXXXXXXXXXXXXXXX  .$$$$ ",
"XXXXXXXXXXXXXXXXXXXXXXXXX      X",
"XXXXXXXXXXXXXXXXXXXXXXXXXXXXXXXX",
"XXXXXXXXXXXXXXXXXXXXXXXXXXXXXXXX",
"XXXXXXXXXXXXXXXXXXXXXXXXXXXXXXXX",
"XXXXXXXXXXXXXXXXXXXXXXXXXXXXXXXX"
};
