/* XPM */
static char * Icon1_xpm[] = {
"32 32 201 2",
"  	c #72751B",
". 	c #C5C3C3",
"+ 	c #524A4A",
"@ 	c #180E0E",
"# 	c #524A0A",
"$ 	c #C5C303",
"% 	c #FFFF00",
"& 	c #D9D7D7",
"* 	c #ABA899",
"= 	c #6C653B",
"- 	c #4D440A",
"; 	c #796D08",
"> 	c #D3C003",
", 	c #FFE900",
"' 	c #D3C011",
") 	c #796E36",
"! 	c #4D4444",
"~ 	c #6C6565",
"{ 	c #ABA7A7",
"] 	c #8B8585",
"^ 	c #787147",
"/ 	c #9F9B1B",
"( 	c #B4B206",
"_ 	c #C7B707",
": 	c #E9BC02",
"< 	c #FEBC01",
"[ 	c #E9BC29",
"} 	c #C4B38F",
"| 	c #B4B1B1",
"1 	c #9C9898",
"2 	c #746D6D",
"3 	c #DDDBDB",
"4 	c #B2AFA2",
"5 	c #736C49",
"6 	c #796F16",
"7 	c #F2DF01",
"8 	c #F0CE01",
"9 	c #FEB600",
"0 	c #FEAA01",
"a 	c #FFAC0A",
"b 	c #FFB225",
"c 	c #FEC462",
"d 	c #F8E6C9",
"e 	c #F6EEE3",
"f 	c #CABAA3",
"g 	c #786E67",
"h 	c #B4AFAC",
"i 	c #959191",
"j 	c #7F7953",
"k 	c #98941F",
"l 	c #B7A505",
"m 	c #FFC300",
"n 	c #FE9E00",
"o 	c #FFAD24",
"p 	c #FFCB75",
"q 	c #FFE5BA",
"r 	c #FFF4E3",
"s 	c #FFF1DA",
"t 	c #FFD48B",
"u 	c #E8BD75",
"v 	c #BCAA91",
"w 	c #7C7575",
"x 	c #E3E1E1",
"y 	c #BBB4A7",
"z 	c #FFA401",
"A 	c #FFAC1E",
"B 	c #FFC25C",
"C 	c #FFE1AE",
"D 	c #ECD0A2",
"E 	c #725E48",
"F 	c #6D5D4E",
"G 	c #E0DEDE",
"H 	c #A09C9C",
"I 	c #86815E",
"J 	c #918C24",
"K 	c #FFD323",
"L 	c #FFD368",
"M 	c #FADAA5",
"N 	c #FFD897",
"O 	c #FECD7B",
"P 	c #FFD183",
"Q 	c #DEAB58",
"R 	c #9B6B22",
"S 	c #7A5725",
"T 	c #7F6F5E",
"U 	c #CCCACA",
"V 	c #645D5D",
"W 	c #605820",
"X 	c #EBD901",
"Y 	c #FBBC04",
"Z 	c #FFE219",
"` 	c #FFF352",
" .	c #FFFAB6",
"..	c #FAEFDE",
"+.	c #FAE1B7",
"@.	c #FFB945",
"#.	c #ED9C17",
"$.	c #D48606",
"%.	c #96600B",
"&.	c #543C20",
"*.	c #FFE700",
"=.	c #FFDA1A",
"-.	c #FFF35D",
";.	c #FFFF97",
">.	c #FFFEDB",
",.	c #F2CA86",
"'.	c #F29700",
").	c #D98700",
"!.	c #9F6303",
"~.	c #452A0A",
"{.	c #FFF346",
"].	c #FFFBA5",
"^.	c #FFFAE5",
"/.	c #E2B365",
"(.	c #F5D49D",
"_.	c #FCBE4B",
":.	c #FBA405",
"<.	c #F7CE89",
"[.	c #FFC86E",
"}.	c #FBD609",
"|.	c #FFEAC5",
"1.	c #FFB717",
"2.	c #FFE745",
"3.	c #FFFF85",
"4.	c #FFFFD5",
"5.	c #FFF7E9",
"6.	c #FFD692",
"7.	c #FBC46A",
"8.	c #F1CD91",
"9.	c #F1C47A",
"0.	c #F6AA2C",
"a.	c #FFBA39",
"b.	c #FFED9C",
"c.	c #FFFCEC",
"d.	c #FFDA9D",
"e.	c #E09B28",
"f.	c #F49E0D",
"g.	c #FFA613",
"h.	c #FFB439",
"i.	c #FFEED2",
"j.	c #FFFEC6",
"k.	c #FFCB65",
"l.	c #D9982D",
"m.	c #FFB232",
"n.	c #FFFECD",
"o.	c #FFFB6F",
"p.	c #FFED0F",
"q.	c #FFC82E",
"r.	c #FFEDA0",
"s.	c #FFFA62",
"t.	c #FFF82D",
"u.	c #FFEA86",
"v.	c #524A18",
"w.	c #C5C32B",
"x.	c #FFE992",
"y.	c #55462D",
"z.	c #C5C37E",
"A.	c #FFF0D6",
"B.	c #FFE591",
"C.	c #524A45",
"D.	c #C5C3B5",
"E.	c #FFEC3D",
"F.	c #F59900",
"G.	c #EB9300",
"H.	c #DE8B00",
"I.	c #FFC751",
"J.	c #FFC71B",
"K.	c #E89600",
"L.	c #E38E00",
"M.	c #E5D2B4",
"N.	c #FFA913",
"O.	c #C57B02",
"P.	c #945F0E",
"Q.	c #A69683",
"R.	c #E1BD83",
"S.	c #885405",
"T.	c #87796A",
"U.	c #E8E7E7",
"V.	c #BCB8B6",
"W.	c #FFB419",
"X.	c #CC7F01",
"Y.	c #A66909",
"Z.	c #684619",
"`.	c #746455",
" +	c #918C8C",
".+	c #B1A06D",
"++	c #FFCA00",
"@+	c #925A04",
"#+	c #C5B714",
"$+	c #EFCB01",
"%+	c #A5A105",
"&+	c #B69D04",
"*+	c #845A1C",
"=+	c #705713",
"-+	c #AE7207",
";+	c #483118",
">+	c #6D5B47",
",+	c #ADA9A5",
"'+	c #A8A099",
")+	c #634F3B",
"!+	c #41270A",
"              . + @ @ # $ % % % % % % $ # @ @ + .               ",
"            & * = - - ; > , , , , , , ' ) ! ! ~ { &             ",
"          & ] ^ / ( ( _ : < < < < < < [ } | | 1 2 ] &           ",
"        3 4 5 6 _ 7 7 8 9 0 0 0 0 a b c d e d f g 2 h 3         ",
"      3 i j k l : m m < 0 n n n n o p q r s t u v i w i 3       ",
"    x y 5 6 _ 8 9 0 0 0 z z 0 a A B q r s C c c D } E F h x     ",
"  G H I J l : m 0 n n n n 0 m K L M r s N O P P O Q R S T H G   ",
"  U V W ( X Y 0 z n n z 0 Y Z `  .r ..+.c c M N @.#.$.%.&.V U   ",
"  . + # $ *.9 n n n n 0 m =.-.;.>.e D ,.O O P c o '.).!.~.+ .   ",
"  . + # $ *.9 n n z 0 Y =.{.].>.^.+././.(.N _.A :.'.).!.~.+ .   ",
"  . + # $ *.9 n n 0 < =.` ;.>.r C <.u u <.[.o n n '.).!.~.+ .   ",
"  . + # $ *.9 n n 9 }.{.].>.^.|.[.c M (._.o :.n n '.).!.~.+ .   ",
"  . + # $ *.9 n n 1.2.3.4.5.q 6.[.7.8.9.0.n n n n '.).!.~.+ .   ",
"  . + # $ *.9 z :.a.b.4.c.|.[.c d.(.Q e.f.n n n n '.).!.~.+ .   ",
"  . + # $ *.9 g.h.O i.c.j.b.k.c N ,.l.).'.n n n n '.).!.~.+ .   ",
"  . + # $ *.< m.6.i.c.n.o.-.b.d.B 0.$.).'.n n n n '.).!.~.+ .   ",
"  . + # $ p.q.[.i.c.i.r.s.s.b.t m.'.).).'.n n n n '.).!.~.+ .   ",
"  . + # $ t.u.|.c.i.O k.b.b.k.h.g.'.).).'.n n n n '.).!.~.+ .   ",
"  . + v.w.s.j.5.i.M c k.b.x.a.:.z '.).).'.n n n n '.).!.~.+ .   ",
"  . + y.z. .c.A.P [.6.B.o.2.1.n n '.).).'.n n n n '.).!.~.+ .   ",
"  . + C.D.^.s C c c d.x.E.}.0 F.F.G.H.H.F.n n n n '.).!.~.+ .   ",
"  . + + . s 6.p t t p I.J.Y K.L.L.L.G.G.n n n n n '.).!.~.+ .   ",
"  U ~ V | M.7.c d.N @.N.a :.L.).).L.'.n n n n n F.L.O.P.y.~ U   ",
"  x { ] ] Q.R.P O B A n n F.G.L.L.G.F.n n n n F.G.O.S.S T.{ x   ",
"    U.V.2 g y D _.W.a 0 z n n F.F.n n n n F.F.G.X.Y.Z.`.V.U.    ",
"      G H ]  +.+[ ++++m 0 n n n n n n F.G.G.G.X.@+S T H G       ",
"        x | 2 ) #+X X $+0 n n n n n n G.$.O.O.Y.Z.F h x         ",
"          3 i j k %+%+&+H.G.G.G.G.G.G.$.!.S.S.*+`.i 3           ",
"            3 4 5 v.v.=+-+X.X.X.X.X.X.Y.Z.;+;+>+,+3             ",
"              & ] V V >+*+@+@+@+@+@+@+*+>+V V ] &               ",
"                & U U '+)+!+!+!+!+!+!+)+'+U U &                 ",
"                      . + @ @ @ @ @ @ + .                       "};
