/* XPM */
static char *result[] = {
/* columns rows colors chars-per-pixel */
"32 32 10 1 ",
"  c #0F663B",
". c #99373F",
"X c #E96835",
"o c #C75243",
"O c #208030",
"+ c #47A632",
"@ c #F08D54",
"# c #8DC746",
"$ c #F7C088",
"% c None",
/* pixels */
"%%%%%%%%%%%%%%%%%%%%%%%%%%%%%%%%",
"%%%%%%%%%%%%%%%%%%%%OO O  %%%%%%",
"%%%%%%%%%%%%%%%%%%%O+#++OO %%%%%",
"%%%%%%%%%%%%%%%%%%%O###O+O %%%%%",
"%%%%%%%%%%%%%%%%%%%+#+#O#+O %%%%",
"%%%%%%%%%%%%%%%%%%O#O +# #+ %%%%",
"%%%%%%%%%%%%%ooooO+O %O#O+# %%%%",
"%%%%%%%%%%%%oXXXXo. %% +O+# %%%%",
"%%%%%%%%%%%oX@$$@@o.% #O+#+ %%%%",
"%%%%%%%%%%%ooX@@$$Xo. O#O+# %%%%",
"%%%%%%%%%%oX@@XX@Xo.. ++ O+ %%%%",
"%%%%%%%%%%oX@$$@@@Xo.% O +#O %%%",
"%%%%%%%%%oXoX@@$XXo.% O+ +O + %%",
"%%%%%%%%%oX@$$@X@Xo.% +O+#+O+ %%",
"%%%%%%%%oX@X@XXoXo.%% #+# #+O%%%",
"%%%%%%%%o@$$@@@Xo.%%% +#O OO %%%",
"%%%%%%%oXXX@$Xoo.%%%% #+OO  %%%%",
"%%%%%%%oo$$@o.o.%%%%% #O#+ %%%%%",
"%%%%%%oX$@@$Xo.%%%%%% +#+ %%%%%%",
"%%%%%%oX@XXXo.%%%%%%% O+ %%%%%%%",
"%%%%%oX@$@.o.%%%%%%%%% OO%%%%%%%",
"%%%%%oo@Xoo.%%%%%%%%%%%  O%%%%%%",
"%%%%oX$@Xo.%%%%%%%%%%%%%% %%%%%%",
"%%%%oo@Xo.%%%%%%%%%%%%%%%%%%%%%%",
"%%%oX@Xo.%%%%%%%%%%%%%%%%%%%%%%%",
"%%%o@Xo.%%%%%%%%%%%%%%%%%%%%%%%%",
"%%%oXo.%%%%%%%%%%%%%%%%%%%%%%%%%",
"%%oX..%%%%%%%%%%%%%%%%%%%%%%%%%%",
"%%o.%%%%%%%%%%%%%%%%%%%%%%%%%%%%",
"%%.%%%%%%%%%%%%%%%%%%%%%%%%%%%%%",
"%%.%%%%%%%%%%%%%%%%%%%%%%%%%%%%%",
"%%%%%%%%%%%%%%%%%%%%%%%%%%%%%%%%"
};
