/* XPM */
static char *cd3810a758ca46e6ae19d037714062e6EJwlhkPuvtYdbN9x[] = {
/* columns rows colors chars-per-pixel */
"32 32 9 1 ",
"  c None",
". c black",
"X c #875609",
"o c #A96C08",
"O c #CA8E0D",
"+ c #E89D07",
"@ c #FDFF59",
"# c #FFB51F",
"$ c white",
/* pixels */
"          .....      .....      ",
"        ..+#@@#..  ..$@###..    ",
"    ....oOXXooo@#..#@XXooX@#.   ",
"  ..@@$##XX+OO+ooX@XoO+OO+oo@.  ",
" .#@oXXoo@#Xo+OOOo#oO+OO+O+O#.  ",
".@oXO+OO+oX@XOO##Xo#@OO+O+##X.  ",
".#XO+OO+O+O#X##XoX#oo#@$##ooO.  ",
".X#@OO+O+##oXoo#OXX#@ooooo#Oo.  ",
".#oo$@@##ooOoO#oXo#oo#$@#OooO.  ",
".X#@ooooo#OoXXo#OXX#@ooooo#Oo.  ",
".#oo$@@#OooOoOOoo.#oo#@@#OooO.  ",
".X#@ooooo#OoXXo...o#@ooooo#OX.. ",
".#XX#@@#OoXO...  .#oo#$@#OXXO...",
".o$@oooXX#Oo..   .o#@ooooo#Oo...",
".#oo#@@#OoXO.    .#oo#@$#OXXO...",
".X#@ooooo#OX......X#@ooooX#OX...",
" .Xo#@@#OXo..$@###XXoO$@##oXO...",
"  ..ooXXo..#@oXXoo@#XXooXX#OX...",
"   .......@oXO+OO+oX@oO##OXXO...",
"         .#XO+OO+O+O#XoooX#OX...",
"         .X#@OO+O+##oXO##OXXO...",
"         .#oo#@$##ooOXXooX#OX...",
"         .X#@ooooo#OXXO##OoXO.. ",
"         .#oo#@@#OooOXXoXX#OX.. ",
"         .X#@ooooo#OXXO##OXX..  ",
"         .#XX#@$#OoXOXXooo...   ",
"         .o#@oooXX#Oo......     ",
"         .#oo#@$#OoXO.          ",
"         .X#@ooooo#OX.          ",
"          .Xo#@@#OXo..          ",
"           ..ooXXo...           ",
"             ......             "
};
