/* XPM */
static char *_9c3658d325d4901b138547b4232bf3e[] = {
/* columns rows colors chars-per-pixel */
"32 32 5 1 ",
"  c #17111A",
". c #83E04C",
"X c gray65",
"o c #B2BCC2",
"O c white",
/* pixels */
"OOOOOOOOOOOOOOOOOOOOOOOOOOOOOOOO",
"OOOOOOOOOOOOOOOOOOOOOOOOOOOOOOOO",
"OOOOOOOOOOOOO  OOOOOO    OOOOOOO",
"OOOOOOOOOOOO Oo OOOOO .. OOOOOOO",
"OOO    OOOO OOOo OO   ..   OOOOO",
"OOO .. OOOO OOOo XO ...... OOOOO",
"O   ..   OO OOOo XX ...... XXOOO",
"O ...... OO OOOo XX   ..   XXOOO",
"O ...... XXO Oo XXXOO .. XXXXOOO",
"O   ..   XX  Oo  XXOO    XXXXOOO",
"OOO .. XXX OOOOOo OOOOOXXXXOOOOO",
"OOO    XX OOOOOOOo OOOOXXXXOOOOO",
"OOOOOXXXX OOOOOOOo XOOOOOOOOOOOO",
"OOOOOXXX OOOOOOOOOo XOOOOOOOOOOO",
"OOOOOOOO OOOOOOOOOo XOO   OOOOOO",
"OO   OOO OOOOOOOOOo XX  .  OOOOO",
"O  .  OO OOOOOOOOOo XX ... XOOOO",
"O ... XO OOOOOOOOoo XX  .  XXOOO",
"O  .  XX  OOOOOOoo  XXO   XXXOOO",
"OO   XXXOO OOOOOo XXXXOOXXXXXOOO",
"OOOXXXXXOO OOOOOo XXXXOOOXXXOOOO",
"OOOOXXXOOO OOOOOo XXO   OOOOOOOO",
"OOOOO   OO OOOOOo XXO . OOOOOOOO",
"OOOO  .  O OOOOoo X   .   OOOOOO",
"OOOO ... X OOOOoo X ..... OOOOOO",
"OOOO  .  XX OOoo XX   .   XXOOOO",
"OOOOO   XXX oooo XXXO . XXXXOOOO",
"OOOOOOXXXXXO    XXXOO   XXXXOOOO",
"OOOOOOOXXXOOOXXXXXXOOOOXXXOOOOOO",
"OOOOOOOOOOOOOOXXXXOOOOOXXXOOOOOO",
"OOOOOOOOOOOOOOOOOOOOOOOOOOOOOOOO",
"OOOOOOOOOOOOOOOOOOOOOOOOOOOOOOOO"
};
