/* XPM */
static char *result[] = {
/* columns rows colors chars-per-pixel */
"32 32 7 1 ",
"  c #AA7959",
". c #388E3C",
"X c #B78A62",
"o c #C49A6C",
"O c #A4C263",
"+ c #E8CFA6",
"@ c #2C6B2F",
/* pixels */
"................................",
"................................",
"................................",
"................................",
"............@.    ..............",
"...........@. ++++ .............",
"....O......@. ++++ .............",
".....O.....@. ++++ .............",
".....O....... ++++ .............",
"............. ++++ .............",
"ooooooooooooX o++o .............",
"              oooo .............",
"............. oooo .............",
"............. oooo .............",
"............. oooo .............",
"ooooooooooooX oooo .............",
"              oooo .............",
"............. o  o .............",
"............. o  o .............",
"............. o  o ........@.@..",
"ooooooooooooX o  o .........@...",
"              o  o .............",
"              o  o .............",
"...@..@...... X  X .............",
"....@.@...... X  X .............",
"....@.....@.. X  X .............",
"....@......@. X  X .@.@.........",
"...........@. X  X ..@..........",
"...........@..X  X..............",
"...............  ...............",
"...............  ...............",
"...............  ..............."
};
