/* XPM */
static char *_8ad2788cc3843b3d5a8d9329f6474aevZbOJ7Xn629HepGl[] = {
/* columns rows colors chars-per-pixel */
"32 32 7 1 ",
"  c #AA7959",
". c #388E3C",
"X c #B78A62",
"o c #C49A6C",
"O c #A4C263",
"+ c #E8CFA6",
"@ c #2C6B2F",
/* pixels */
"............... X...............",
"............... X...............",
"............... X...............",
"............... X...............",
"............@.    ..............",
"...........@. ++++ .............",
"....O......@. ++++ .............",
".....O.....@. ++++ .............",
".....O....... ++++ .............",
"............. ++++ .............",
"............. o++o .............",
"............. oooo .............",
"............. oooo .............",
"............. oooo .............",
"............. oooo .............",
"............. o Xo .............",
"............. o Xo .............",
"............. o Xo .............",
"............. o Xo .............",
"............. o Xo ........@.@..",
"............. o Xo .........@...",
".......@..... X XX .............",
"......@...... X XX .............",
"...@..@...... X XX .............",
"....@.@...... X XX .............",
"....@.....@...X XX..............",
"....@......@... X...@.@.........",
"...........@... X....@..........",
"...........@... X...............",
"............... X...............",
"............... X...............",
"............... X..............."
};
