/* XPM */
static char *_8e21274c37a486fd6bc97b60e31e376XLucZPoapyMRvtRT[] = {
/* columns rows colors chars-per-pixel */
"32 32 9 1 ",
"  c #101010",
". c #202020",
"X c #606060",
"o c gray44",
"O c #808080",
"+ c #A0A0A0",
"@ c gray69",
"# c #C0C0C0",
"$ c #D0D0D0",
/* pixels */
"#$#$$#$##@@+@@O $$$$$#$#@+@@++X.",
"$$##$$#@@##@+@o.$$#$#$#$@@+@+@o ",
"$#$$##@##++@@@X.$#$#$##@+@++@@o ",
"$#$##@@#@@@++@o.###$#$#+@+@@@+o.",
"#$#@##@++++@@+o $#$#@++@@+@@+@X ",
"##@@+@++++@@@+o.#$#$#+@@++++@+X.",
"OOOoooXoooXXoXX.OOOOoXoOOOooXoo ",
". .  .  . .  .  .. .  ... ...  .",
"@@++@@O.#$$#$#$#@@#@@+X.###$$#$#",
"#@@++@O.$#$##$#@##@#+@o $##$###@",
"@@+@++O $##$$#$#@++@+@o.$$##$#@#",
"@+@@@@o.#$#$#@@##@++@+X $#$$#$##",
"@+@+@+o $#$#@@+@@@@+@+o #$#@##@@",
"@+@@++o.#$@@++@++@@++@o.#@@+@@++",
"OoOoXXo.OoOOOoOooOooXoX OoOOoOoX",
". ...  . .     .. .    . ....   ",
"##$#@##$#@X $$#@@+o $#$#@@@@+@X.",
"$$#@#@@#@@O $##@@+X $$#@@#@+@+O ",
"$##$#@#@#@X @@@+@@o ###$#@@@++O.",
"$#$#@@@#@@X $#@@++X $@#@#@+@+@o ",
"#$#####@+@O #+++@@o @#@@#+@+++o ",
"#@@@+@+@+@X +@+@++O #@++@@+@@+X ",
"OoOooOoOOoO oooOooX OooOoOOOoXo.",
".   .   ... . .   .  . .  .. . .",
"@$@+@@@+O $#$#$#@##@@@O #$$#$$$#",
"$@@@+++@O.$$#$#@##@@++O.$$#$#$#@",
"$@+@+@+@o.#$#@$###@@+@o.$$$#$#@#",
"@+@+@+@+X.$#@#@@#@+@@+o $#$$#@@@",
"++++@+@+o #@##@+@@++++o $$#@$###",
"@+@@+@++X @@+++@++@+@+X #@@@+@++",
"OOoXoXoOo.OOoXoXOOOOoXo oOoOOoOX",
"..    ..   .    . . .. .. .. .. "
};
