/* XPM */
static char *result[] = {
/* columns rows colors chars-per-pixel */
"32 32 6 1 ",
"  c #AA7959",
". c #388E3C",
"X c #B78A62",
"o c #C49A6C",
"O c #E8EEAA",
"+ c black",
/* pixels */
"++++++++++++++++++++++++........",
"++++++++++++++++++++++++........",
"++++++++++++++++++++++++........",
"++++++++++++++++++++++++........",
"++++++++++++++++++++++++........",
"++++++++++++++++++++++++........",
"++++++++++++++++++++++++........",
"++++++++++++++++++++++++........",
"++++++++++++++++++++++++........",
"++++++++++++++++++++++++........",
"++++++++++++++++++++++++oooooooX",
"++++++++++++++++++++++++        ",
"++++++++++++++++++++++++........",
"++++++++++++++++++++++++........",
"++++++++++++++++++++++++........",
"++++++++++++++++++++++++oooooooX",
"++++++++++++++++++++++++        ",
"++++++++++++++++++++++++........",
"++++++++++++++++++++++++........",
"............. o  o ........O.O..",
"............. o  o ooooooooooooX",
".......O..... o  o              ",
"......O...... o  o              ",
"...O..O...... X  X .............",
"....O.O...... X  X .............",
"....O.....O.. X  X .............",
"....O......O. X  X .O.O.........",
"...........O. X  X ..O..........",
"...........O..X  X..............",
"...............  ...............",
"...............  ...............",
"...............  ..............."
};
